<svg width="42" height="30" viewBox="0 0 42 30" fill="none" xmlns="http://www.w3.org/2000/svg">
<g clip-path="url(#clip0_7_393)">
<path d="M4.62816 0L2.00721 6.834H39.3449L39.3198 0.000100648L15.0657 0.000100648V5.59969H13.6867V0.000100648L12.1533 0.000100648V5.59969H10.7748V0.000100648L9.17211 0.000100648V5.59969H7.79315V0.000100648L4.62816 0ZM40.282 1.60722V5.7018H42V1.60722H40.282ZM2.56248 8.34445L4.45312 11.5684L0 29.2776L9.34751 30L11.3277 20.1315H21.9678L23.3158 12.0499L39.3623 11.6599L39.3504 8.34455L2.56248 8.34445ZM21.562 12.0926L20.5351 18.2498H11.7052L12.8984 12.3033L14.0503 12.2753L13.8459 15.8502L15.157 17.2174L15.2492 13.8287L17.519 12.1909L21.562 12.0926Z" fill="#4E5A64"/>
</g>
<defs>
<clipPath id="clip0_7_393">
<rect width="42" height="30" fill="white"/>
</clipPath>
</defs>
</svg>
