<svg width="30" height="30" viewBox="0 0 30 30" fill="none" xmlns="http://www.w3.org/2000/svg">
<path d="M16.5367 1.33436C16.1214 0.941708 15.5716 0.722931 15 0.722931C14.4285 0.722931 13.8786 0.941708 13.4633 1.33436L2.62806 11.5746C2.29629 11.8886 2.03212 12.2669 1.85173 12.6866C1.67134 13.1062 1.57853 13.5583 1.57898 14.015L1.57898 26.4742C1.57957 27.3637 1.93334 28.2166 2.56251 28.8453C3.19167 29.4741 4.04476 29.8273 4.93424 29.8273H8.28951C9.17938 29.8273 10.0328 29.4738 10.662 28.8445C11.2913 28.2153 11.6448 27.3619 11.6448 26.472L11.6448 20.8799C11.6448 20.5833 11.7626 20.2988 11.9723 20.089C12.1821 19.8793 12.4666 19.7615 12.7632 19.7615H17.2369C17.5335 19.7615 17.818 19.8793 18.0277 20.089C18.2375 20.2988 18.3553 20.5833 18.3553 20.8799V26.472C18.3553 27.3619 18.7088 28.2153 19.338 28.8445C19.9673 29.4738 20.8207 29.8273 21.7106 29.8273H25.0658C25.9557 29.8273 26.8091 29.4738 27.4384 28.8445C28.0676 28.2153 28.4211 27.3619 28.4211 26.472L28.4211 14.0128C28.4209 13.5562 28.3276 13.1045 28.1469 12.6853C27.9661 12.266 27.7017 11.8881 27.3698 11.5746L16.5367 1.32988V1.33436Z" fill="#4E5A64"/>
</svg>
